<svg width="518" height="383" viewBox="0 0 518 383" fill="none" xmlns="http://www.w3.org/2000/svg">
<g filter="url(#filter0_d_2192_777)">
<path d="M22.0474 196.295C32.1805 191.499 52.5826 182.904 77.2012 174.333C97.2114 167.366 124.398 160.402 142.726 157.4C153.423 155.648 170.439 154.994 185.783 154.712C188.661 154.659 190.331 155.509 191.759 157.376C195.229 161.912 194.905 168.369 193.493 173.455C190.625 183.793 180.198 191.434 173.669 196.545C167.15 201.648 160.374 211.264 117.147 244.719C95.5464 261.437 78.7653 274.585 69.1253 286.109C56.5546 301.138 52.1065 308.386 43.6142 322.325C37.4898 332.377 40.1883 342.75 40.1798 345.696C40.1592 352.833 58.8052 350.814 76.6656 348.682C86.864 347.464 111.392 334.815 143.109 319.001C159.538 310.81 166.845 304.882 177.436 296.861C191.86 285.937 202.81 278.947 210.98 270.939C225.503 256.703 241.88 243.568 252.065 233.388C256.516 228.938 260.004 226.394 274.362 212.544C288.72 198.694 313.968 173.729 328.377 159.806C350.084 138.832 359.771 133.007 369.691 126.045C384.702 115.512 393.774 106.739 403.984 99.7449C413.616 92.2362 424.395 84.7195 429.487 80.9692C431.773 79.3436 494.221 23.1396 495.955 22.0451" stroke="#7A40F5" stroke-width="44" stroke-linecap="round"/>
</g>
<defs>
<filter id="filter0_d_2192_777" x="0" y="0" width="518" height="382.735" filterUnits="userSpaceOnUse" color-interpolation-filters="sRGB">
<feFlood flood-opacity="0" result="BackgroundImageFix"/>
<feColorMatrix in="SourceAlpha" type="matrix" values="0 0 0 0 0 0 0 0 0 0 0 0 0 0 0 0 0 0 127 0" result="hardAlpha"/>
<feOffset dy="10"/>
<feComposite in2="hardAlpha" operator="out"/>
<feColorMatrix type="matrix" values="0 0 0 0 0.0509804 0 0 0 0 0.0509804 0 0 0 0 0.0509804 0 0 0 1 0"/>
<feBlend mode="normal" in2="BackgroundImageFix" result="effect1_dropShadow_2192_777"/>
<feBlend mode="normal" in="SourceGraphic" in2="effect1_dropShadow_2192_777" result="shape"/>
</filter>
</defs>
</svg>
